<?xml version="1.0" standalone="no"?>
<!DOCTYPE svg PUBLIC "-//W3C//DTD SVG 20010904//EN"
 "http://www.w3.org/TR/2001/REC-SVG-20010904/DTD/svg10.dtd">
<svg version="1.0" xmlns="http://www.w3.org/2000/svg"
 width="700.000000pt" height="700.000000pt" viewBox="0 0 700.000000 700.000000"
 preserveAspectRatio="xMidYMid meet">
<metadata>
Created by potrace 1.14, written by Peter Selinger 2001-2017
</metadata>
<g transform="translate(0.000000,700.000000) scale(0.100000,-0.100000)"
fill="#000000" stroke="none">
<path d="M3229 6525 c-2 -2 -24 -6 -49 -10 -69 -10 -95 -14 -168 -30 -67 -14
-220 -58 -257 -75 -11 -5 -49 -21 -85 -36 -384 -164 -701 -466 -917 -874 -110
-208 -180 -454 -209 -727 -13 -124 -6 -445 11 -534 3 -13 8 -46 11 -73 7 -47
6 -48 -14 -37 -74 39 -167 -20 -189 -119 -16 -75 -23 -361 -11 -455 9 -71 77
-214 135 -285 7 -8 41 -50 76 -92 35 -43 95 -133 133 -200 110 -197 156 -226
290 -183 19 6 24 -2 53 -97 18 -57 48 -150 66 -208 18 -58 45 -130 60 -161 40
-85 227 -292 432 -479 81 -73 76 -58 89 -283 6 -106 5 -109 -14 -103 -29 10
-151 10 -191 1 -54 -12 -159 -70 -251 -138 -178 -133 -299 -187 -420 -187 -74
0 -166 -25 -207 -56 -37 -28 -60 -72 -71 -134 l-8 -45 -114 -22 c-63 -12 -130
-25 -147 -27 -91 -15 -241 -62 -323 -100 -222 -104 -413 -290 -530 -517 -32
-62 -100 -223 -100 -236 0 -2 1438 -3 3195 -3 1757 0 3195 4 3195 8 0 17 -48
149 -78 214 -96 212 -268 383 -498 497 -146 72 -337 130 -544 165 -148 26
-140 22 -140 58 0 96 -69 186 -162 212 -29 8 -95 17 -146 21 -51 3 -114 13
-141 21 -63 18 -150 76 -235 155 -37 35 -87 76 -109 92 -72 49 -165 64 -269
42 -62 -13 -81 -8 -73 19 2 6 6 54 10 106 10 172 4 156 81 223 103 90 335 326
381 388 23 30 50 74 62 99 18 41 84 245 131 408 9 35 20 65 23 68 3 3 15 0 27
-6 12 -6 42 -12 67 -12 71 0 115 38 178 150 76 134 134 222 172 261 34 36 153
209 159 231 0 3 8 21 16 40 28 61 37 141 33 295 -5 223 -19 296 -65 348 -26
30 -33 32 -93 32 -36 0 -63 3 -61 7 2 4 7 26 10 50 2 24 7 52 9 63 21 104 21
448 0 595 -3 19 -8 55 -11 79 -9 79 -71 303 -109 396 -183 452 -512 815 -917
1013 -92 45 -274 115 -331 126 -12 3 -31 7 -42 10 -33 8 -157 34 -200 41 -42
8 -600 17 -606 10z"/>
</g>
</svg>
