<?xml version="1.0" standalone="no"?>
<!DOCTYPE svg PUBLIC "-//W3C//DTD SVG 20010904//EN"
 "http://www.w3.org/TR/2001/REC-SVG-20010904/DTD/svg10.dtd">
<svg version="1.0" xmlns="http://www.w3.org/2000/svg"
 width="700.000000pt" height="700.000000pt" viewBox="0 0 700.000000 700.000000"
 preserveAspectRatio="xMidYMid meet">
<metadata>
Created by potrace 1.11, written by Peter Selinger 2001-2013
</metadata>
<g transform="translate(0.000000,700.000000) scale(0.100000,-0.100000)"
fill="#000000" stroke="none">
<path d="M3258 6945 c-1 -1 -34 -6 -73 -9 -282 -25 -620 -142 -877 -303 -188
-118 -417 -327 -523 -477 -11 -15 -25 -33 -31 -40 -18 -19 -113 -163 -144
-218 -122 -214 -228 -507 -255 -703 -3 -22 -7 -49 -10 -60 -2 -11 -7 -49 -10
-85 -3 -36 -8 -81 -11 -100 -6 -43 -6 -346 0 -380 2 -14 7 -63 11 -110 4 -47
8 -92 10 -100 16 -85 15 -91 -2 -81 -30 15 -84 20 -112 10 -70 -27 -104 -95
-118 -238 -10 -96 -10 -372 0 -430 7 -45 73 -193 89 -199 4 -2 8 -8 8 -14 0
-13 78 -121 125 -173 45 -50 110 -149 181 -274 94 -169 158 -209 274 -175 24
7 48 10 53 5 4 -4 14 -30 22 -57 38 -139 119 -386 144 -439 26 -56 77 -127
161 -220 49 -56 273 -279 348 -347 54 -50 62 -61 63 -95 1 -21 2 -51 4 -68 2
-16 6 -80 9 -142 l6 -112 -33 10 c-77 22 -221 3 -305 -40 -20 -10 -102 -66
-182 -123 -220 -156 -309 -194 -477 -202 -179 -9 -271 -75 -289 -209 -7 -52
-9 -54 -59 -61 -37 -5 -112 -18 -175 -31 -14 -3 -41 -8 -60 -11 -332 -53 -644
-240 -841 -506 -33 -45 -67 -94 -75 -110 l-15 -28 3426 0 3426 0 -12 23 c-66
122 -230 296 -359 380 -230 148 -455 224 -872 292 -33 5 -38 9 -38 34 0 62
-31 135 -79 183 -55 55 -110 73 -246 83 -126 9 -153 14 -210 38 -71 29 -128
70 -220 155 -96 89 -150 127 -207 148 -49 18 -184 20 -238 4 -61 -18 -60 -19
-55 88 8 159 15 222 26 240 6 9 32 33 57 52 65 49 380 365 429 431 74 97 81
115 212 546 l31 101 49 -13 c69 -18 130 -4 175 41 18 18 60 80 92 136 72 129
124 206 190 284 44 53 77 100 151 219 59 95 73 176 68 400 -5 209 -8 248 -31
317 -29 90 -96 127 -187 104 -22 -5 -25 -3 -22 16 9 57 18 130 30 248 6 61 6
341 0 410 -41 455 -178 819 -440 1169 -143 191 -357 389 -553 511 -234 144
-543 256 -792 286 -25 3 -72 9 -105 14 -57 7 -519 12 -527 5z"/>
</g>
</svg>
